# Blender 4.0.2
# www.blender.org
o Sphere
v 0.000000 0.382683 -0.923880
v 0.000000 0.000000 -1.000000
v 0.000000 -0.382683 -0.923880
v 0.000000 -0.923880 -0.382683
v 0.146447 0.923880 -0.353553
v 0.270598 0.707107 -0.653281
v 0.353553 0.382683 -0.853553
v 0.382683 0.000000 -0.923880
v 0.353553 -0.382683 -0.853553
v 0.270598 -0.707107 -0.653281
v 0.146447 -0.923880 -0.353553
v 0.270598 0.923880 -0.270598
v 0.500000 0.707107 -0.500000
v 0.653282 0.382683 -0.653281
v 0.707107 0.000000 -0.707107
v 0.653282 -0.382683 -0.653281
v 0.500000 -0.707107 -0.500000
v 0.270598 -0.923880 -0.270598
v 0.353553 0.923880 -0.146447
v 0.653281 0.707107 -0.270598
v 0.853553 0.382683 -0.353553
v 0.923880 0.000000 -0.382683
v 0.853553 -0.382683 -0.353553
v 0.653281 -0.707107 -0.270598
v 0.353553 -0.923880 -0.146447
v 0.382683 0.923880 0.000000
v 0.707107 0.707107 0.000000
v 0.923880 0.382683 0.000000
v 1.000000 0.000000 0.000000
v 0.923880 -0.382683 0.000000
v 0.707107 -0.707107 0.000000
v 0.382683 -0.923880 0.000000
v 0.353553 0.923880 0.146447
v 0.653281 0.707107 0.270598
v 0.853553 0.382683 0.353554
v 0.923879 0.000000 0.382684
v 0.853553 -0.382683 0.353554
v 0.653281 -0.707107 0.270598
v 0.353553 -0.923880 0.146447
v 0.270598 0.923880 0.270598
v 0.500000 0.707107 0.500000
v 0.653281 0.382683 0.653282
v 0.707107 0.000000 0.707107
v 0.653281 -0.382683 0.653282
v 0.500000 -0.707107 0.500000
v 0.270598 -0.923880 0.270598
v 0.146447 0.923880 0.353553
v 0.270598 0.707107 0.653281
v 0.353553 0.382683 0.853553
v 0.382683 0.000000 0.923880
v 0.353553 -0.382683 0.853553
v 0.270598 -0.707107 0.653281
v 0.146447 -0.923880 0.353553
v -0.000000 0.923880 0.382683
v -0.000000 0.707107 0.707107
v -0.000000 0.382683 0.923879
v -0.000000 0.000000 1.000000
v -0.000000 -0.382683 0.923879
v -0.000000 -0.707107 0.707107
v -0.000000 -0.923880 0.382683
v 0.000000 -1.000000 0.000000
v 0.000000 1.000000 0.000000
v -0.146447 0.923880 0.353553
v -0.270598 0.707107 0.653281
v -0.353554 0.382683 0.853553
v -0.382684 0.000000 0.923879
v -0.353554 -0.382683 0.853553
v -0.270598 -0.707107 0.653281
v -0.146447 -0.923880 0.353553
v -0.270598 0.923880 0.270598
v -0.500000 0.707107 0.500000
v -0.653282 0.382683 0.653281
v -0.707107 0.000000 0.707106
v -0.653282 -0.382683 0.653281
v -0.500000 -0.707107 0.500000
v -0.270598 -0.923880 0.270598
v -0.353553 0.923880 0.146446
v -0.653281 0.707107 0.270598
v -0.853553 0.382683 0.353553
v -0.923880 0.000000 0.382683
v -0.853553 -0.382683 0.353553
v -0.653281 -0.707107 0.270598
v -0.353553 -0.923880 0.146446
v -0.382683 0.923880 -0.000000
v -0.707107 0.707107 -0.000000
v -0.923879 0.382683 -0.000000
v -1.000000 0.000000 -0.000001
v -0.923879 -0.382683 -0.000000
v -0.707107 -0.707107 -0.000000
v -0.382683 -0.923880 -0.000000
v -0.353553 0.923880 -0.146447
v -0.653281 0.707107 -0.270598
v -0.853553 0.382683 -0.353554
v -0.923879 0.000000 -0.382684
v -0.853553 -0.382683 -0.353554
v -0.653281 -0.707107 -0.270598
v -0.353553 -0.923880 -0.146447
v -0.270598 0.923880 -0.270598
v -0.500000 0.707107 -0.500000
v -0.653281 0.382683 -0.653282
v -0.707106 0.000000 -0.707107
v -0.653281 -0.382683 -0.653282
v -0.500000 -0.707107 -0.500000
v -0.270598 -0.923880 -0.270598
v -0.146446 0.923880 -0.353554
v -0.270598 0.707107 -0.653281
v -0.353553 0.382683 -0.853553
v -0.382683 0.000000 -0.923880
v -0.353553 -0.382683 -0.853553
v -0.270598 -0.707107 -0.653281
v -0.146446 -0.923880 -0.353554
v 0.000000 0.923880 -0.382683
v 0.000000 0.707107 -0.707107
v 0.000000 -0.707107 -0.707107
vn -0.0000 -0.3744 -0.9273
vn -0.0000 -0.0000 -1.0000
vn 0.3827 -0.0000 -0.9239
vn 0.3549 -0.3744 -0.8567
vn -0.0000 0.3744 -0.9273
vn -0.0000 0.6952 -0.7189
vn 0.2751 0.6952 -0.6641
vn 0.3549 0.3744 -0.8567
vn -0.0000 0.9152 -0.4031
vn -0.0000 1.0000 -0.0000
vn 0.1543 0.9152 -0.3724
vn -0.0000 -1.0000 -0.0000
vn -0.0000 -0.9152 -0.4031
vn 0.1543 -0.9152 -0.3724
vn -0.0000 -0.6952 -0.7189
vn 0.2751 -0.6952 -0.6641
vn 0.2850 -0.9152 -0.2850
vn 0.6557 -0.3744 -0.6557
vn 0.5083 -0.6952 -0.5083
vn 0.6557 0.3744 -0.6557
vn 0.7071 -0.0000 -0.7071
vn 0.2850 0.9152 -0.2850
vn 0.5083 0.6952 -0.5083
vn 0.3724 0.9152 -0.1543
vn 0.6641 0.6952 -0.2751
vn 0.6641 -0.6952 -0.2751
vn 0.3724 -0.9152 -0.1543
vn 0.9239 -0.0000 -0.3827
vn 0.8567 -0.3744 -0.3549
vn 0.8567 0.3744 -0.3549
vn 0.7189 -0.6952 -0.0000
vn 0.4031 -0.9152 -0.0000
vn 1.0000 -0.0000 -0.0000
vn 0.9273 -0.3744 -0.0000
vn 0.7189 0.6952 -0.0000
vn 0.9273 0.3744 -0.0000
vn 0.4031 0.9152 -0.0000
vn 0.3724 0.9152 0.1543
vn 0.3724 -0.9152 0.1543
vn 0.8567 -0.3744 0.3549
vn 0.6641 -0.6952 0.2751
vn 0.8567 0.3744 0.3549
vn 0.9239 -0.0000 0.3827
vn 0.6641 0.6952 0.2751
vn 0.6557 -0.3744 0.6557
vn 0.5083 -0.6952 0.5083
vn 0.6557 0.3744 0.6557
vn 0.7071 -0.0000 0.7071
vn 0.2850 0.9152 0.2850
vn 0.5083 0.6952 0.5083
vn 0.2850 -0.9152 0.2850
vn 0.2751 -0.6952 0.6641
vn 0.1543 -0.9152 0.3724
vn 0.3827 -0.0000 0.9239
vn 0.3549 -0.3744 0.8567
vn 0.2751 0.6952 0.6641
vn 0.3549 0.3744 0.8567
vn 0.1543 0.9152 0.3724
vn -0.0000 -0.0000 1.0000
vn -0.0000 -0.3744 0.9273
vn -0.0000 0.6952 0.7189
vn -0.0000 0.3744 0.9273
vn -0.0000 0.9152 0.4031
vn -0.0000 -0.9152 0.4031
vn -0.0000 -0.6952 0.7189
vn -0.1543 -0.9152 0.3724
vn -0.3549 -0.3744 0.8567
vn -0.2751 -0.6952 0.6641
vn -0.3549 0.3744 0.8567
vn -0.3827 -0.0000 0.9239
vn -0.1543 0.9152 0.3724
vn -0.2751 0.6952 0.6641
vn -0.6557 0.3744 0.6557
vn -0.7071 -0.0000 0.7071
vn -0.2850 0.9152 0.2850
vn -0.5083 0.6952 0.5083
vn -0.5083 -0.6952 0.5083
vn -0.2850 -0.9152 0.2850
vn -0.6557 -0.3744 0.6557
vn -0.6641 -0.6952 0.2751
vn -0.3724 -0.9152 0.1543
vn -0.9239 -0.0000 0.3827
vn -0.8567 -0.3744 0.3549
vn -0.6641 0.6952 0.2751
vn -0.8567 0.3744 0.3549
vn -0.3724 0.9152 0.1543
vn -0.7189 0.6952 -0.0000
vn -0.9273 0.3744 -0.0000
vn -0.4031 0.9152 -0.0000
vn -0.4031 -0.9152 -0.0000
vn -0.9273 -0.3744 -0.0000
vn -0.7189 -0.6952 -0.0000
vn -1.0000 -0.0000 -0.0000
vn -0.3724 -0.9152 -0.1543
vn -0.8567 -0.3744 -0.3549
vn -0.6641 -0.6952 -0.2751
vn -0.8567 0.3744 -0.3549
vn -0.9239 -0.0000 -0.3827
vn -0.3724 0.9152 -0.1543
vn -0.6641 0.6952 -0.2751
vn -0.2850 0.9152 -0.2850
vn -0.5083 0.6952 -0.5083
vn -0.5083 -0.6952 -0.5083
vn -0.2850 -0.9152 -0.2850
vn -0.7071 -0.0000 -0.7071
vn -0.6557 -0.3744 -0.6557
vn -0.6557 0.3744 -0.6557
vn -0.2751 -0.6952 -0.6641
vn -0.1543 -0.9152 -0.3724
vn -0.3827 -0.0000 -0.9239
vn -0.3549 -0.3744 -0.8567
vn -0.2751 0.6952 -0.6641
vn -0.3549 0.3744 -0.8567
vn -0.1543 0.9152 -0.3724
vt 0.750000 0.375000
vt 0.750000 0.500000
vt 0.687500 0.500000
vt 0.687500 0.375000
vt 0.750000 0.625000
vt 0.750000 0.750000
vt 0.687500 0.750000
vt 0.687500 0.625000
vt 0.750000 0.875000
vt 0.718750 1.000000
vt 0.687500 0.875000
vt 0.718750 0.000000
vt 0.750000 0.125000
vt 0.687500 0.125000
vt 0.750000 0.250000
vt 0.687500 0.250000
vt 0.656250 0.000000
vt 0.625000 0.125000
vt 0.625000 0.375000
vt 0.625000 0.250000
vt 0.625000 0.625000
vt 0.625000 0.500000
vt 0.625000 0.875000
vt 0.625000 0.750000
vt 0.656250 1.000000
vt 0.562500 0.875000
vt 0.562500 0.750000
vt 0.562500 0.250000
vt 0.562500 0.125000
vt 0.562500 0.500000
vt 0.562500 0.375000
vt 0.562500 0.625000
vt 0.593750 1.000000
vt 0.593750 0.000000
vt 0.500000 0.250000
vt 0.500000 0.125000
vt 0.500000 0.500000
vt 0.500000 0.375000
vt 0.500000 0.750000
vt 0.500000 0.625000
vt 0.531250 1.000000
vt 0.500000 0.875000
vt 0.531250 0.000000
vt 0.468750 1.000000
vt 0.437500 0.875000
vt 0.468750 0.000000
vt 0.437500 0.125000
vt 0.437500 0.375000
vt 0.437500 0.250000
vt 0.437500 0.625000
vt 0.437500 0.500000
vt 0.437500 0.750000
vt 0.375000 0.375000
vt 0.375000 0.250000
vt 0.375000 0.625000
vt 0.375000 0.500000
vt 0.375000 0.875000
vt 0.375000 0.750000
vt 0.375000 0.125000
vt 0.406250 1.000000
vt 0.406250 0.000000
vt 0.312500 0.250000
vt 0.312500 0.125000
vt 0.312500 0.500000
vt 0.312500 0.375000
vt 0.312500 0.750000
vt 0.312500 0.625000
vt 0.343750 1.000000
vt 0.312500 0.875000
vt 0.343750 0.000000
vt 0.250000 0.500000
vt 0.250000 0.375000
vt 0.250000 0.750000
vt 0.250000 0.625000
vt 0.281250 1.000000
vt 0.250000 0.875000
vt 0.281250 0.000000
vt 0.250000 0.125000
vt 0.250000 0.250000
vt 0.218750 0.000000
vt 0.187500 0.125000
vt 0.187500 0.375000
vt 0.187500 0.250000
vt 0.187500 0.625000
vt 0.187500 0.500000
vt 0.187500 0.875000
vt 0.187500 0.750000
vt 0.218750 1.000000
vt 0.125000 0.625000
vt 0.125000 0.500000
vt 0.125000 0.875000
vt 0.125000 0.750000
vt 0.125000 0.250000
vt 0.125000 0.125000
vt 0.125000 0.375000
vt 0.156250 1.000000
vt 0.156250 0.000000
vt 0.062500 0.250000
vt 0.062500 0.125000
vt 0.062500 0.500000
vt 0.062500 0.375000
vt 0.062500 0.750000
vt 0.062500 0.625000
vt 0.093750 1.000000
vt 0.062500 0.875000
vt 0.093750 0.000000
vt 0.000000 0.750000
vt 0.000000 0.625000
vt 0.031250 1.000000
vt 0.000000 0.875000
vt 0.031250 0.000000
vt 0.000000 0.125000
vt 0.000000 0.375000
vt 0.000000 0.250000
vt 0.000000 0.500000
vt 0.968750 0.000000
vt 1.000000 0.125000
vt 0.937500 0.125000
vt 1.000000 0.250000
vt 1.000000 0.375000
vt 0.937500 0.375000
vt 0.937500 0.250000
vt 1.000000 0.500000
vt 1.000000 0.625000
vt 0.937500 0.625000
vt 0.937500 0.500000
vt 1.000000 0.750000
vt 1.000000 0.875000
vt 0.937500 0.875000
vt 0.937500 0.750000
vt 0.968750 1.000000
vt 0.875000 0.875000
vt 0.875000 0.750000
vt 0.875000 0.250000
vt 0.875000 0.125000
vt 0.875000 0.500000
vt 0.875000 0.375000
vt 0.875000 0.625000
vt 0.906250 1.000000
vt 0.906250 0.000000
vt 0.812500 0.250000
vt 0.812500 0.125000
vt 0.812500 0.500000
vt 0.812500 0.375000
vt 0.812500 0.750000
vt 0.812500 0.625000
vt 0.843750 1.000000
vt 0.812500 0.875000
vt 0.843750 0.000000
vt 0.781250 1.000000
vt 0.781250 0.000000
s 1
f 3/1/1 2/2/2 8/3/3 9/4/4
f 1/5/5 113/6/6 6/7/7 7/8/8
f 112/9/9 62/10/10 5/11/11
f 61/12/12 4/13/13 11/14/14
f 114/15/15 3/1/1 9/4/4 10/16/16
f 2/2/2 1/5/5 7/8/8 8/3/3
f 113/6/6 112/9/9 5/11/11 6/7/7
f 4/13/13 114/15/15 10/16/16 11/14/14
f 61/17/12 11/14/14 18/18/17
f 10/16/16 9/4/4 16/19/18 17/20/19
f 8/3/3 7/8/8 14/21/20 15/22/21
f 6/7/7 5/11/11 12/23/22 13/24/23
f 11/14/14 10/16/16 17/20/19 18/18/17
f 9/4/4 8/3/3 15/22/21 16/19/18
f 7/8/8 6/7/7 13/24/23 14/21/20
f 5/11/11 62/25/10 12/23/22
f 13/24/23 12/23/22 19/26/24 20/27/25
f 18/18/17 17/20/19 24/28/26 25/29/27
f 16/19/18 15/22/21 22/30/28 23/31/29
f 14/21/20 13/24/23 20/27/25 21/32/30
f 12/23/22 62/33/10 19/26/24
f 61/34/12 18/18/17 25/29/27
f 17/20/19 16/19/18 23/31/29 24/28/26
f 15/22/21 14/21/20 21/32/30 22/30/28
f 25/29/27 24/28/26 31/35/31 32/36/32
f 23/31/29 22/30/28 29/37/33 30/38/34
f 21/32/30 20/27/25 27/39/35 28/40/36
f 19/26/24 62/41/10 26/42/37
f 61/43/12 25/29/27 32/36/32
f 24/28/26 23/31/29 30/38/34 31/35/31
f 22/30/28 21/32/30 28/40/36 29/37/33
f 20/27/25 19/26/24 26/42/37 27/39/35
f 26/42/37 62/44/10 33/45/38
f 61/46/12 32/36/32 39/47/39
f 31/35/31 30/38/34 37/48/40 38/49/41
f 29/37/33 28/40/36 35/50/42 36/51/43
f 27/39/35 26/42/37 33/45/38 34/52/44
f 32/36/32 31/35/31 38/49/41 39/47/39
f 30/38/34 29/37/33 36/51/43 37/48/40
f 28/40/36 27/39/35 34/52/44 35/50/42
f 38/49/41 37/48/40 44/53/45 45/54/46
f 36/51/43 35/50/42 42/55/47 43/56/48
f 34/52/44 33/45/38 40/57/49 41/58/50
f 39/47/39 38/49/41 45/54/46 46/59/51
f 37/48/40 36/51/43 43/56/48 44/53/45
f 35/50/42 34/52/44 41/58/50 42/55/47
f 33/45/38 62/60/10 40/57/49
f 61/61/12 39/47/39 46/59/51
f 46/59/51 45/54/46 52/62/52 53/63/53
f 44/53/45 43/56/48 50/64/54 51/65/55
f 42/55/47 41/58/50 48/66/56 49/67/57
f 40/57/49 62/68/10 47/69/58
f 61/70/12 46/59/51 53/63/53
f 45/54/46 44/53/45 51/65/55 52/62/52
f 43/56/48 42/55/47 49/67/57 50/64/54
f 41/58/50 40/57/49 47/69/58 48/66/56
f 51/65/55 50/64/54 57/71/59 58/72/60
f 49/67/57 48/66/56 55/73/61 56/74/62
f 47/69/58 62/75/10 54/76/63
f 61/77/12 53/63/53 60/78/64
f 52/62/52 51/65/55 58/72/60 59/79/65
f 50/64/54 49/67/57 56/74/62 57/71/59
f 48/66/56 47/69/58 54/76/63 55/73/61
f 53/63/53 52/62/52 59/79/65 60/78/64
f 61/80/12 60/78/64 69/81/66
f 59/79/65 58/72/60 67/82/67 68/83/68
f 57/71/59 56/74/62 65/84/69 66/85/70
f 55/73/61 54/76/63 63/86/71 64/87/72
f 60/78/64 59/79/65 68/83/68 69/81/66
f 58/72/60 57/71/59 66/85/70 67/82/67
f 56/74/62 55/73/61 64/87/72 65/84/69
f 54/76/63 62/88/10 63/86/71
f 66/85/70 65/84/69 72/89/73 73/90/74
f 64/87/72 63/86/71 70/91/75 71/92/76
f 69/81/66 68/83/68 75/93/77 76/94/78
f 67/82/67 66/85/70 73/90/74 74/95/79
f 65/84/69 64/87/72 71/92/76 72/89/73
f 63/86/71 62/96/10 70/91/75
f 61/97/12 69/81/66 76/94/78
f 68/83/68 67/82/67 74/95/79 75/93/77
f 76/94/78 75/93/77 82/98/80 83/99/81
f 74/95/79 73/90/74 80/100/82 81/101/83
f 72/89/73 71/92/76 78/102/84 79/103/85
f 70/91/75 62/104/10 77/105/86
f 61/106/12 76/94/78 83/99/81
f 75/93/77 74/95/79 81/101/83 82/98/80
f 73/90/74 72/89/73 79/103/85 80/100/82
f 71/92/76 70/91/75 77/105/86 78/102/84
f 79/103/85 78/102/84 85/107/87 86/108/88
f 77/105/86 62/109/10 84/110/89
f 61/111/12 83/99/81 90/112/90
f 82/98/80 81/101/83 88/113/91 89/114/92
f 80/100/82 79/103/85 86/108/88 87/115/93
f 78/102/84 77/105/86 84/110/89 85/107/87
f 83/99/81 82/98/80 89/114/92 90/112/90
f 81/101/83 80/100/82 87/115/93 88/113/91
f 61/116/12 90/117/90 97/118/94
f 89/119/92 88/120/91 95/121/95 96/122/96
f 87/123/93 86/124/88 93/125/97 94/126/98
f 85/127/87 84/128/89 91/129/99 92/130/100
f 90/117/90 89/119/92 96/122/96 97/118/94
f 88/120/91 87/123/93 94/126/98 95/121/95
f 86/124/88 85/127/87 92/130/100 93/125/97
f 84/128/89 62/131/10 91/129/99
f 92/130/100 91/129/99 98/132/101 99/133/102
f 97/118/94 96/122/96 103/134/103 104/135/104
f 95/121/95 94/126/98 101/136/105 102/137/106
f 93/125/97 92/130/100 99/133/102 100/138/107
f 91/129/99 62/139/10 98/132/101
f 61/140/12 97/118/94 104/135/104
f 96/122/96 95/121/95 102/137/106 103/134/103
f 94/126/98 93/125/97 100/138/107 101/136/105
f 104/135/104 103/134/103 110/141/108 111/142/109
f 102/137/106 101/136/105 108/143/110 109/144/111
f 100/138/107 99/133/102 106/145/112 107/146/113
f 98/132/101 62/147/10 105/148/114
f 61/149/12 104/135/104 111/142/109
f 103/134/103 102/137/106 109/144/111 110/141/108
f 101/136/105 100/138/107 107/146/113 108/143/110
f 99/133/102 98/132/101 105/148/114 106/145/112
f 105/148/114 62/150/10 112/9/9
f 61/151/12 111/142/109 4/13/13
f 110/141/108 109/144/111 3/1/1 114/15/15
f 108/143/110 107/146/113 1/5/5 2/2/2
f 106/145/112 105/148/114 112/9/9 113/6/6
f 111/142/109 110/141/108 114/15/15 4/13/13
f 109/144/111 108/143/110 2/2/2 3/1/1
f 107/146/113 106/145/112 113/6/6 1/5/5
